<svg xmlns="http://www.w3.org/2000/svg" width="96" height="96" aria-labelledby="title" role="img" shape-rendering="geometricPrecision" viewBox="0 0 96 96"><title id="title">收藏</title><path fill="#000000" fill-rule="evenodd" d="M49.098 81.904H48l-3.395-2.494-25.599-22.954-3.075-3.084-1.836-2.297-1.756-2.855-.66-1.538-1.098-3.514-.69-4.393.031-3.735.659-3.734.879-2.855 1.757-3.515 3.043-4.173 2.965-2.714 1.977-1.318 3.295-1.537 3.295-.879 3.295-.252.659-.218h1.537l1.977.406 1.318.064 3.734 1.099 2.197 1.097 2.955 2.055 1.438 1.209.878 1.056.659.26.44-.218 1.876-2.087 3.176-2.275 1.757-.878 3.075-1.098 3.954-.471h2.636l1.537.407 1.538.064 1.757.439 4.173 1.977 3.615 2.494 3.053 3.075 1.099 1.538 1.976 3.734.879 2.636.658 3.514.033 1.538.218.659v2.416l-.218.659-.033 2.416-.594 2.197-.064 1.098L83.881 48l-.375.439-.284.879-.878 1.537-2.275 2.956-2.316 2.536-4.593 3.954-2.655 2.635-4.493 3.845-3.415 3.404-3.714 3.075-8.367 7.688Zm-.219-4.393 4.173-3.702 6.489-6.26 1.958-1.537 5.511-5.272 7.568-6.7 3.075-3.084 1.176-1.638.065-.439.375-.44 1.317-2.855.284-1.318.595-1.318.284-2.856.187-.439.001-1.757.218-.659-.69-5.272-.879-2.636-.878-1.757-1.757-2.636-3.053-3.075-2.956-2.055-3.954-1.537-2.416-.471h-3.075l-.439.187-1.318.064-2.416.659-1.977.878-1.757 1.099-2.197 1.726-2.975 3.184-.759.329-.879-.031-.878-.659-2.756-2.933-3.175-2.275-3.514-1.537-4.833-.911-1.977.032-4.173.879-3.075 1.537-2.516 1.835-2.975 2.975-2.055 2.956-1.538 4.173-.47 3.075v4.394l1.129 5.052 1.098 2.416 1.977 2.855 1.067 1.318 3.624 3.624 21.645 19.44 1.519 1.098 2.535 2.274Z" clip-rule="evenodd"/><path fill="#f70517" fill-rule="evenodd" d="m72.382 42.367-.44.219h-.878l-1.176-.956-.251-1.538.626-2.416.031-.878-.218-.659-.033-1.318-.878-1.977-1.177-1.396-1.757-.878-1.318-.251h-1.757l-1.098.218-.979-.329-.856-.879-.251-1.098.25-.659 1.177-1.176.878-.251 3.735.032 3.075 1.097 1.418.957 1.515 1.538 1.538 2.855.69 3.734-.471 3.954-.439 1.098Z" clip-rule="evenodd"/></svg>
