<svg xmlns="http://www.w3.org/2000/svg" width="96" height="96" aria-labelledby="title" role="img" shape-rendering="geometricPrecision" viewBox="0 0 96 96"><title id="title">收货地址</title><path fill="#000000" fill-rule="evenodd" d="m48.444 75.666-.888-.032-.889-.444-3.889-3.857-8.556-9.676L28.365 54l-1.555-2.444-2-4-.889-2.223-1.365-6v-6.222l1.143-4.667 1.111-3.111 1.111-2.222 1.555-2.444 1.635-2.102 3.556-3.311 2.222-1.555 2-1.111 3.333-1.333 2.445-.667 3.111-.476 1.333-.002.667-.22 4.889.476 2.222.444 3.333 1.111 2.889 1.555 2.99 2.08 4.566 4.787 2.523 3.879 1.111 2.445.667 2 .287 2.666.411 1.334-.032 7.111-.379 1.111-.287 2.222-.38.667-.509 1.778-.602 1.111-.287 1.111-.38.444-.509 1.334-3.555 5.777-6.968 8.991L52.222 73l-2 1.968Zm0-4.222.667-.454.889-1.314 2.889-3.13 7.412-9.213.509-.889 2.38-2.888 3.334-5.334L67.634 46l1.778-5.333.065-1.334.411-2v-2.889l-.698-4.222-.445-1.555-.889-2-1.999-3.556-2.524-2.958-3.555-2.899-3.556-1.777-2.666-.889-2.223-.444L50 14.079l-.444-.189h-2.445l-4.889.92-2 .667-2.444 1.11-3.657 2.524-3.01 3.01-1.412 2.101-1.333 2.445-1.334 3.777-.444 1.778-.033 1.556-.221.666v3.778l.221.667.033 1.555 1.111 3.778 1.333 3.111 2.889 4.889 3.333 4.667L38 60.324l5.222 5.898 3 3.01 1.556 1.98Zm32.777 4.334-.999 2.101-1.454 1.454-1.879 1.19-4 1.778-.667.065-1.333.602-3.111.888-10.445 1.588-2 .001-.666.221-4.445.001-.666.221h-4.889L44 85.667l-3.333-.001-2.889-.443-2.445-.002-1.555-.411L32 84.745l-2-.601-1.778-.288-1.555-.601-1.556-.287-2-.824-.667-.066-.444-.379-1.111-.287-1.333-.824-.889-.287-1.556-1.079-1.412-1.444L14.81 76l-.254-1.778.254-1.333.746-1.435L16.788 70l2.545-1.857 6-2.666 1.556-.287 1.555-.602 1.112-.032 1.222 1 .412.666v.889l-.866.889-1.435.745-1.778.287-1.333.602-1.334.287-.888.602-1.112.287-2 1.111-1.634 1.635-.222.444v.889l.301.546 1.555 1.533 1.556.888.889.287.444.38 5.334 1.778 6.666 1.143 2.889.033 2.445.633h11.777l.667-.22 3.778-.002 1.333-.411L60 81.444l3.111-.476 1.111-.38 1.334-.065 4.666-1.111 4-1.556 2.102-1.412 1.12-1.555-.032-1.111-2.079-1.857-3.777-2-1.112-.287-1.111-.602-3.555-.953-1.222-.968-.223-.667.033-.666L66 64.366l1.111-.032 3.333 1.143 1.112.602 1.111.287 2 .889 3.111 1.777L78.99 70l1.534 1.778.666 1.333Z" clip-rule="evenodd"/><path fill="#f70517" fill-rule="evenodd" d="M49.778 45.444 46 45.412l-1.556-.444-1.333-.824-.444-.066L41 42.667l-1.301-1.778-1.111-2.667-.254-1.555.254-2.667.444-1.556 1.412-2.545L42.343 28l1.435-.967 2.444-.889 1.334-.254h1.333l2.222.476 2 .888.99.746L56 29.899l.968 1.434.888 2.445.065 1.333.189.445-.254 2-.601 1.333-.065.667-1.412 2.323-1.232 1.232-2.102 1.413-.888.444Zm-.667-3.778 1.778-.698L52.111 40l1.079-1.333.476-1.334v-2.444l-.476-1.556-.666-1.111-.645-.666-1.657-.968L48 30.113l-2 .475-2 1.311-1.19 1.879-.254 1.111v1.778l.698 1.777 1.857 2.08 1.111.666 1.778.444Z" clip-rule="evenodd"/></svg>
